<?xml version="1.0" encoding="iso-8859-1"?>
<!-- Generator: Adobe Illustrator 19.0.0, SVG Export Plug-In . SVG Version: 6.00 Build 0)  -->
<svg version="1.1" id="Capa_1" xmlns="http://www.w3.org/2000/svg" xmlns:xlink="http://www.w3.org/1999/xlink" x="0px" y="0px"
	 viewBox="0 0 468.293 468.293" style="enable-background:new 0 0 468.293 468.293;" xml:space="preserve">
<g>
	<path style="fill:#E1E6E9;" d="M151.951,465.368l-15.727-27.315c-1.321-2.294-4.019-3.412-6.575-2.724l-30.435,8.194
		c-4.676,1.259-8.762-3.395-6.909-7.869l71.746-149.865l70.096,29.035L162.401,464.69
		C160.548,469.163,154.367,469.564,151.951,465.368z"/>
	<path style="fill:#E1E6E9;" d="M316.342,465.368l15.727-27.315c1.321-2.294,4.019-3.412,6.575-2.724l30.435,8.194
		c4.676,1.259,8.762-3.395,6.909-7.869L304.243,285.79l-70.096,29.035l71.746,149.865
		C307.746,469.163,313.926,469.564,316.342,465.368z"/>
</g>
<path style="fill:#FCD462;" d="M405.873,191.413c-19.16-20.995-23.555-51.562-11.086-77.104c3.552-7.276-0.425-15.984-8.25-18.064
	c-27.469-7.303-47.692-30.642-51.012-58.871c-0.946-8.041-8.999-13.217-16.707-10.737c-27.057,8.707-56.687,0.007-74.742-21.946
	c-5.143-6.253-14.716-6.253-19.859,0h0c-18.054,21.953-47.685,30.653-74.742,21.946c-7.707-2.48-15.761,2.695-16.707,10.737
	c-3.32,28.229-23.543,51.568-51.012,58.871c-7.825,2.08-11.802,10.789-8.25,18.064c12.469,25.543,8.074,56.109-11.086,77.104
	c-5.458,5.981-4.095,15.457,2.826,19.657c24.299,14.747,37.127,42.837,32.36,70.858c-1.358,7.982,4.911,15.217,13.005,15.009
	c28.414-0.731,54.393,15.964,65.531,42.114c3.173,7.449,12.359,10.146,19.055,5.595c23.508-15.977,54.389-15.977,77.897,0
	c6.697,4.551,15.882,1.854,19.055-5.595c11.139-26.15,37.117-42.846,65.532-42.114c8.094,0.208,14.363-7.027,13.005-15.009
	c-4.768-28.021,8.061-56.111,32.359-70.858h0C409.968,206.87,411.33,197.394,405.873,191.413z"/>
<path style="fill:#27A2DB;" d="M271.692,304.621c-11.898-4.597-24.585-6.976-37.545-6.976c-12.961,0-25.648,2.38-37.545,6.976
	c-15.249-20.886-37.753-35.377-63.136-40.589c-1.485-25.918-12.582-50.218-31.187-68.317c12.75-22.598,16.551-49.027,10.684-74.304
	c22.955-12.126,40.449-32.322,49.175-56.775c2.841,0.234,5.697,0.353,8.558,0.351c23.254,0,45.43-7.649,63.452-21.487
	c18.022,13.841,40.201,21.49,63.452,21.487c2.861,0,5.717-0.117,8.558-0.351c8.726,24.454,26.22,44.65,49.175,56.775
	c-5.865,25.28-2.066,51.706,10.684,74.304c-18.606,18.099-29.703,42.401-31.187,68.317
	C309.442,269.244,286.938,283.735,271.692,304.621z"/>
<path style="fill:#EBF0F3;" d="M311.861,124.177c-5.519-7.038-15.703-8.267-22.746-2.742l-90.598,71.101l-18.155-17.329
	c-6.476-6.181-16.728-5.938-22.906,0.535c-6.176,6.474-5.938,16.728,0.535,22.906l28.304,27.015c3.114,2.972,7.146,4.48,11.188,4.48
	c3.52,0,7.051-1.142,9.999-3.457l101.635-79.763C316.156,141.399,317.385,131.215,311.861,124.177z"/>
<g>
</g>
<g>
</g>
<g>
</g>
<g>
</g>
<g>
</g>
<g>
</g>
<g>
</g>
<g>
</g>
<g>
</g>
<g>
</g>
<g>
</g>
<g>
</g>
<g>
</g>
<g>
</g>
<g>
</g>
</svg>
