<?xml version="1.0" encoding="iso-8859-1"?>
<!-- Generator: Adobe Illustrator 19.0.0, SVG Export Plug-In . SVG Version: 6.00 Build 0)  -->
<svg version="1.1" id="Capa_1" xmlns="http://www.w3.org/2000/svg" xmlns:xlink="http://www.w3.org/1999/xlink" x="0px" y="0px"
	 viewBox="0 0 512 512" style="enable-background:new 0 0 512 512;" xml:space="preserve">
<path style="fill:#DCE1EB;" d="M500.063,305.4l-42.001-84C456.262,98.1,355.763,0,233.062,0c-14.7,0-29.7,1.5-45,4.501
	C99.261,21.599,28.462,92.999,11.962,182.1c-11.4,62.699,2.401,125.099,39.3,175.499C81.863,399.6,98.062,449,98.062,497
	c0,8.401,6.599,15,15,15h210c8.401,0,15-6.599,15-15v-39.2c0-4.2,3.6-7.8,7.8-7.8h67.2c24.901,0,45-20.099,45-45v-45h8.101
	c13.2,0,25.199-6.599,32.1-17.999C505.162,330.901,505.763,317.1,500.063,305.4z"/>
<path style="fill:#CDD2E1;" d="M498.263,342.001c-6.901,11.4-18.9,17.999-32.1,17.999h-8.101v45c0,24.901-20.099,45-45,45h-67.2
	c-4.2,0-7.8,3.6-7.8,7.8V497c0,8.401-6.599,15-15,15h-90V0c122.701,0,223.2,98.101,225,221.4l42.001,84
	C505.763,317.1,505.162,330.901,498.263,342.001z"/>
<path style="fill:#19CFFC;" d="M233.062,90c-74.399,0-135,60.601-135,135s60.601,135,135,135s135-60.601,135-135
	S307.461,90,233.062,90z"/>
<g>
	<path style="fill:#4A7AFF;" d="M368.062,225c0,74.399-60.601,135-135,135V90C307.461,90,368.062,150.601,368.062,225z"/>
	<path style="fill:#4A7AFF;" d="M233.062,120c-57.9,0-105,47.1-105,105s47.1,105,105,105s105-47.1,105-105S290.962,120,233.062,120z
		"/>
</g>
<path style="fill:#0053BF;" d="M338.062,225c0,57.9-47.1,105-105,105V120C290.962,120,338.062,167.1,338.062,225z"/>
<g>
	<path style="fill:#19CFFC;" d="M368.062,225c0,8.401-6.599,15-15,15h-240c-8.401,0-15-6.599-15-15s6.599-15,15-15h240
		C361.463,210,368.062,216.599,368.062,225z"/>
	<path style="fill:#19CFFC;" d="M233.062,90c-39.3,0-60,67.8-60,135s20.7,135,60,135s60-67.8,60-135S272.362,90,233.062,90z
		 M233.062,330c-8.699,0-30-36.899-30-105s21.301-105,30-105s30,36.899,30,105S241.761,330,233.062,330z"/>
</g>
<g>
	<path style="fill:#4A7AFF;" d="M293.062,225c0,67.2-20.7,135-60,135v-30c8.699,0,30-36.899,30-105s-21.301-105-30-105V90
		C272.362,90,293.062,157.8,293.062,225z"/>
	<path style="fill:#4A7AFF;" d="M368.062,225c0,8.401-6.599,15-15,15h-120v-30h120C361.463,210,368.062,216.599,368.062,225z"/>
</g>
<g>
</g>
<g>
</g>
<g>
</g>
<g>
</g>
<g>
</g>
<g>
</g>
<g>
</g>
<g>
</g>
<g>
</g>
<g>
</g>
<g>
</g>
<g>
</g>
<g>
</g>
<g>
</g>
<g>
</g>
</svg>
