<?xml version="1.0" encoding="iso-8859-1"?>
<!-- Generator: Adobe Illustrator 19.0.0, SVG Export Plug-In . SVG Version: 6.00 Build 0)  -->
<svg version="1.1" id="Capa_1" xmlns="http://www.w3.org/2000/svg" xmlns:xlink="http://www.w3.org/1999/xlink" x="0px" y="0px"
	 viewBox="0 0 512 512" style="enable-background:new 0 0 512 512;" xml:space="preserve">
<path style="fill:#DCE1EB;" d="M500.063,305.4l-42.001-84C456.262,98.1,355.763,0,233.062,0c-14.7,0-29.7,1.5-45,4.501
	C99.261,21.599,28.462,92.999,11.962,182.1c-11.4,62.699,2.401,125.099,39.3,175.499C81.863,399.6,98.062,449,98.062,497
	c0,8.401,6.599,15,15,15h210c8.401,0,15-6.599,15-15v-39.2c0-4.2,3.6-7.8,7.8-7.8h67.2c24.901,0,45-20.099,45-45v-45h8.101
	c13.2,0,25.199-6.599,32.1-17.999C505.162,330.901,505.763,317.1,500.063,305.4z"/>
<path style="fill:#CDD2E1;" d="M498.263,342.001c-6.901,11.4-18.9,17.999-32.1,17.999h-8.101v45c0,24.901-20.099,45-45,45h-67.2
	c-4.2,0-7.8,3.6-7.8,7.8V497c0,8.401-6.599,15-15,15h-90V0c122.701,0,223.2,98.101,225,221.4l42.001,84
	C505.763,317.1,505.162,330.901,498.263,342.001z"/>
<path style="fill:#FF475A;" d="M203.062,225c0-24.901-20.099-45-45-45s-45,20.099-45,45h-45c0,90.899,74.099,165,165,165l30-92.25
	l-30-72.75H203.062z"/>
<path style="fill:#4A7AFF;" d="M300.562,195l-67.5,30v30c-24.901,0-45,20.099-45,45c0,24.899,20.099,45,45,45c0,3.021,0,48.021,0,45
	c88.759,0,165-72.31,165-165L300.562,195z"/>
<path style="fill:#76DB71;" d="M233.062,60l-30,82.5l30,82.5h30c0,24.814,20.186,45,45,45s45-20.186,45-45h45
	C398.062,134.019,324.043,60,233.062,60z"/>
<path style="fill:#FEDB41;" d="M278.062,150c0,24.899-20.099,45-45,45v30h-30c0-24.901-20.099-45-45-45s-45,20.099-45,45h-45
	c0-90.901,74.099-165,165-165v45C257.962,105,278.062,125.099,278.062,150z"/>
<g>
</g>
<g>
</g>
<g>
</g>
<g>
</g>
<g>
</g>
<g>
</g>
<g>
</g>
<g>
</g>
<g>
</g>
<g>
</g>
<g>
</g>
<g>
</g>
<g>
</g>
<g>
</g>
<g>
</g>
</svg>
