<?xml version="1.0" encoding="iso-8859-1"?>
<!-- Generator: Adobe Illustrator 19.0.0, SVG Export Plug-In . SVG Version: 6.00 Build 0)  -->
<svg version="1.1" id="Capa_1" xmlns="http://www.w3.org/2000/svg" xmlns:xlink="http://www.w3.org/1999/xlink" x="0px" y="0px"
	 viewBox="0 0 512 512" style="enable-background:new 0 0 512 512;" xml:space="preserve">
<circle style="fill:#005C83;" cx="256" cy="256" r="256"/>
<path style="fill:#00263F;" d="M512,256c0-6.935-0.285-13.803-0.827-20.599L401.354,125.582l-104.87,126.775l-90.95-90.95
	l-61.064,61.064l93.87,93.87c-23.214,27.018-88.166,102.371-90.499,102.371l92.817,92.817c5.077,0.3,10.189,0.47,15.341,0.47
	C397.385,512,512,397.385,512,256z"/>
<polygon style="fill:#FFFFFF;" points="196.116,364.149 365.74,222.682 401.354,125.582 304.676,161.618 163.209,331.242 "/>
<polygon style="fill:#EFEFEF;" points="179.234,347.266 196.116,364.149 365.74,222.682 401.354,125.582 401.354,125.582 "/>
<rect x="136.15" y="313.127" transform="matrix(-0.7071 -0.7071 0.7071 -0.7071 22.7072 736.388)" style="fill:#FF9451;" width="55.429" height="100.729"/>
<rect x="159.277" y="322.727" transform="matrix(0.7071 0.7071 -0.7071 0.7071 314.614 -13.3633)" style="fill:#F7674F;" width="28.323" height="100.729"/>
<rect x="153.868" y="312.384" transform="matrix(-0.7071 -0.7071 0.7071 -0.7071 108.6577 700.7687)" style="fill:#FFDC00;" width="91.189" height="30.994"/>
<rect x="192.284" y="328.299" transform="matrix(0.7071 0.7071 -0.7071 0.7071 306.1849 -51.6037)" style="fill:#FFC000;" width="46.2" height="30.994"/>
<polygon style="fill:#E0E0E0;" points="347.002,331.031 205.534,161.407 108.435,125.793 144.47,222.471 314.095,363.938 "/>
<polygon style="fill:#C0C0C0;" points="108.435,125.793 108.435,125.793 144.47,222.471 314.095,363.938 330.516,347.516 "/>
<rect x="318.632" y="312.917" transform="matrix(-0.7071 0.7071 -0.7071 -0.7071 848.129 375.2559)" style="fill:#FF9451;" width="55.429" height="100.729"/>
<rect x="322.701" y="322.744" transform="matrix(-0.7071 0.7071 -0.7071 -0.7071 838.3316 398.9682)" style="fill:#F7674F;" width="27.671" height="100.729"/>
<rect x="265.137" y="312.183" transform="matrix(-0.7071 0.7071 -0.7071 -0.7071 762.1557 339.6641)" style="fill:#FFDC00;" width="91.189" height="30.994"/>
<rect x="271.816" y="328.313" transform="matrix(-0.7071 0.7071 -0.7071 -0.7071 746.0101 378.6125)" style="fill:#FFC000;" width="45.552" height="30.994"/>
<g>
</g>
<g>
</g>
<g>
</g>
<g>
</g>
<g>
</g>
<g>
</g>
<g>
</g>
<g>
</g>
<g>
</g>
<g>
</g>
<g>
</g>
<g>
</g>
<g>
</g>
<g>
</g>
<g>
</g>
</svg>
