<?xml version="1.0" encoding="iso-8859-1"?>
<!-- Generator: Adobe Illustrator 19.0.0, SVG Export Plug-In . SVG Version: 6.00 Build 0)  -->
<svg xmlns="http://www.w3.org/2000/svg" xmlns:xlink="http://www.w3.org/1999/xlink" version="1.1" id="Layer_1" x="0px" y="0px" viewBox="0 0 512 512" style="enable-background:new 0 0 512 512;" xml:space="preserve" width="512px" height="512px">
<g>
	<g>
		<path d="M381.531,56.684l-73.875,73.891l6.547,6.555l-66.82,25.781l-53.188-21.43l10.164-10.164l-73.891-73.891L0,187.895    l73.891,73.891l9.703-9.703l36.016,57.062c-2.203,4.484-3.383,9.453-3.383,14.578c0,8.844,3.445,17.156,9.688,23.391    c5.93,5.922,13.711,9.328,22.047,9.641c0.32,8.031,3.531,15.938,9.633,22.031c5.93,5.938,13.703,9.328,22.031,9.656    c0.328,8.328,3.727,16.109,9.648,22.031c5.93,5.922,13.703,9.312,22.031,9.656c0.328,8.312,3.727,16.094,9.648,22.031    c6.25,6.25,14.555,9.688,23.383,9.688c0.875,0,1.75-0.062,2.609-0.125c4.594,2.344,9.703,3.594,15.016,3.594    c8.828,0,17.133-3.438,23.383-9.688c6.094-6.094,9.312-14,9.625-22.016c8.344-0.328,16.125-3.734,22.047-9.656    c5.922-5.906,9.328-13.688,9.656-22.016c8.312-0.328,16.078-3.719,22.016-9.641c5.906-5.922,9.312-13.703,9.641-22.016    c8.328-0.328,16.078-3.719,22.016-9.656c10.547-10.547,12.453-26.5,5.719-39.031l44.391-58.219l7.67,7.665L512,187.151    L381.531,56.684z M73.891,231.628l-43.727-43.734L130.469,87.589l43.734,43.727L73.891,231.628z M157.594,332.035    c-2.219,2.219-5.164,3.438-8.297,3.438c-3.141,0-6.086-1.219-8.305-3.438c-2.211-2.22-3.437-5.173-3.437-8.313    c0-3.125,1.227-6.078,3.445-8.281l11.039-11.062c2.219-2.219,5.164-3.438,8.305-3.438c3.133,0,6.078,1.219,8.297,3.438    c4.578,4.578,4.578,12.031,0,16.594L157.594,332.035z M189.273,363.722c-2.211,2.203-5.164,3.438-8.297,3.438    c-3.141,0-6.086-1.234-8.305-3.438c-4.57-4.594-4.57-12.031,0.008-16.609l11.039-11.047c2.22-2.219,5.173-3.438,8.305-3.438    c3.133,0,6.078,1.219,8.297,3.438s3.438,5.156,3.438,8.297s-1.219,6.078-3.438,8.297L189.273,363.722z M220.961,395.394    c-2.219,2.219-5.172,3.438-8.305,3.438s-6.086-1.234-8.305-3.438c-2.211-2.219-3.438-5.172-3.438-8.297    c0-3.141,1.227-6.094,3.445-8.312l11.039-11.031c2.22-2.22,5.173-3.439,8.306-3.439s6.086,1.219,8.297,3.438    c4.578,4.562,4.578,12.016,0.008,16.594L220.961,395.394z M263.68,416.034l-11.039,11.031c-2.219,2.219-5.164,3.438-8.305,3.438    c-3.133,0-6.086-1.219-8.297-3.438c-2.219-2.219-3.445-5.156-3.445-8.297s1.227-6.078,3.445-8.297l11.047-11.047    c2.219-2.218,5.164-3.437,8.297-3.437s6.086,1.219,8.297,3.438c2.219,2.219,3.445,5.172,3.445,8.297    C267.125,410.863,265.898,413.816,263.68,416.034z M365.25,335.565c-2.203,2.203-5.156,3.422-8.281,3.422    c-3.016,0-5.875-1.141-8.062-3.203l-29.109-29.094c-4.172-4.172-10.922-4.172-15.078,0c-4.156,4.156-4.156,10.906,0,15.062    l29.125,29.125c4.312,4.562,4.203,11.891-0.25,16.344c-2.219,2.219-5.156,3.438-8.281,3.438c-3.016,0-5.875-1.156-8.062-3.219    l-29.109-29.094c-4.172-4.172-10.922-4.172-15.078,0c-4.164,4.156-4.164,10.906,0,15.062l29.109,29.125    c4.328,4.562,4.219,11.891-0.234,16.344c-2.219,2.219-5.156,3.438-8.297,3.438c-2.141,0-4.172-0.578-5.953-1.625    c-1.312-6.156-4.375-11.797-8.922-16.344c-5.922-5.938-13.719-9.328-22.047-9.656c-0.328-8-3.531-15.922-9.641-22.031    c-5.922-5.922-13.703-9.312-22.023-9.656c-0.336-8.312-3.727-16.094-9.648-22.031c-5.93-5.906-13.719-9.312-22.047-9.641    c-0.328-8.016-3.531-15.922-9.641-22.031c-6.242-6.234-14.547-9.672-23.375-9.672c-8.836,0-17.133,3.438-23.383,9.672    l-2.852,2.859L99.056,236.62l11.289-11.289l67.469-67.461l46.914,18.906l-31.141,31.141c-12.938,12.938-12.938,33.984,0,46.914    c6.266,6.266,14.594,9.719,23.453,9.719c8.789,0,17.055-3.398,23.305-9.57l16.227-15.07l16.398-4.203l15.812,9.617l6.484,3.938    l67.766,67.477l2.219,2.219C369.844,323.534,369.844,330.972,365.25,335.565z M371.688,295.269L308.5,232.354l-32.125-19.539    l-30.344,7.773l-20.336,18.891l-0.281,0.273c-2.234,2.234-5.211,3.469-8.375,3.469s-6.141-1.234-8.375-3.469    c-4.617-4.617-4.617-12.133,0-16.758l36.297-36.297l85.727-33.07l84.547,84.531L371.688,295.269z M438.124,230.886    L337.812,130.573l43.719-43.726l100.312,100.305L438.124,230.886z" fill="#006DF0"/>
	</g>
</g>
<g>
	<g>
		<path d="M85.453,190.534c-4.164-4.164-10.922-4.164-15.086,0s-4.164,10.914,0,15.078s10.922,4.164,15.086,0    S89.617,194.698,85.453,190.534z" fill="#006DF0"/>
	</g>
</g>
<g>
</g>
<g>
</g>
<g>
</g>
<g>
</g>
<g>
</g>
<g>
</g>
<g>
</g>
<g>
</g>
<g>
</g>
<g>
</g>
<g>
</g>
<g>
</g>
<g>
</g>
<g>
</g>
<g>
</g>
</svg>
