<?xml version="1.0" encoding="iso-8859-1"?>
<!-- Generator: Adobe Illustrator 18.1.1, SVG Export Plug-In . SVG Version: 6.00 Build 0)  -->
<svg xmlns="http://www.w3.org/2000/svg" xmlns:xlink="http://www.w3.org/1999/xlink" version="1.1" id="Capa_1" x="0px" y="0px" viewBox="0 0 15.17 15.17" style="enable-background:new 0 0 15.17 15.17;" xml:space="preserve" width="512px" height="512px">
<g>
	<g>
		<path d="M5.933,4.472V0.804c0-0.252-0.035-0.529-0.138-0.678C3.301-0.572,3.014,1.855,3.014,1.855    c-0.08,0.305-0.12,0.872-0.14,1.457c0.13-0.031,0.259-0.05,0.383-0.05l0,0c0.362,0,0.68,0.143,0.896,0.403    c0.271,0.327,0.364,0.796,0.289,1.457H5.09C5.494,5.122,5.834,4.845,5.933,4.472z" fill="#006DF0"/>
		<path d="M13.577,9.726h-0.408c-0.814,0-1.478-0.532-1.478-1.187v-0.65C11.428,8.081,11.081,8.2,10.698,8.2    H10.29c-0.815,0-1.479-0.531-1.479-1.186V6.742c-0.263,0.192-0.61,0.31-0.993,0.31H7.41c-0.804,0-1.459-0.519-1.476-1.162    C5.706,6.083,5.412,6.201,5.091,6.201H4.375C4.28,6.618,4.384,7.744,3.864,8.166C3.569,8.44,3.188,7.96,3.188,7.96    C4.02,7.053,3.966,5.602,3.966,5.602C4.175,4.477,3.43,3.869,3.002,3.869c-0.122,0-0.257,0.03-0.396,0.078    c0,0-0.822,0.424-1.15,0.72C1.148,4.88,0.559,5.581,0.498,5.653L0.483,5.632c-0.811,1.32,0.19,2.678,0.19,2.678    c1.292,2.26,3.718,5.246,3.718,5.246c1.13,0.969,0.484,1.533,0.484,1.533l8.471,0.081l0.43-1.452    c0.797-1.522,1.116-3.336,1.228-4.873C14.835,9.352,14.261,9.726,13.577,9.726z" fill="#006DF0"/>
		<path d="M13.169,8.599h0.408c0.538,0,0.994-0.321,0.994-0.702V3.478c0-0.38-0.456-0.702-0.994-0.702h-0.408    c-0.538,0-0.993,0.321-0.993,0.702v2.893v1.526C12.176,8.277,12.631,8.599,13.169,8.599z" fill="#006DF0"/>
		<path d="M7.41,5.924h0.408c0.539,0,0.993-0.321,0.993-0.702v-3.27V0.804c0-0.38-0.454-0.702-0.993-0.702    H7.41c-0.538,0-0.994,0.322-0.994,0.702v4.419C6.417,5.603,6.872,5.924,7.41,5.924z" fill="#006DF0"/>
		<path d="M10.29,7.072h0.408c0.538,0,0.993-0.321,0.993-0.702V3.478V1.952c0-0.38-0.455-0.702-0.993-0.702    H10.29c-0.539,0-0.994,0.321-0.994,0.702v3.271v1.148C9.296,6.751,9.751,7.072,10.29,7.072z" fill="#006DF0"/>
	</g>
</g>
<g>
</g>
<g>
</g>
<g>
</g>
<g>
</g>
<g>
</g>
<g>
</g>
<g>
</g>
<g>
</g>
<g>
</g>
<g>
</g>
<g>
</g>
<g>
</g>
<g>
</g>
<g>
</g>
<g>
</g>
</svg>
