<?xml version="1.0" encoding="iso-8859-1"?>
<!-- Generator: Adobe Illustrator 19.0.0, SVG Export Plug-In . SVG Version: 6.00 Build 0)  -->
<svg version="1.1" id="Capa_1" xmlns="http://www.w3.org/2000/svg" xmlns:xlink="http://www.w3.org/1999/xlink" x="0px" y="0px"
	 viewBox="0 0 477.518 477.518" style="enable-background:new 0 0 477.518 477.518;" xml:space="preserve">
<path style="fill:#4DCFE0;" d="M329.143,477.518c-4.702,0-9.927-1.567-13.584-5.224l-76.8-65.829l-76.278,65.829
	c-6.269,5.224-15.151,6.792-22.465,3.135c-7.314-3.657-12.539-10.971-12.539-19.331v-0.522l7.837-185.992l31.347,1.567
	l-6.792,161.959l64.784-55.902c7.837-7.314,20.376-7.314,28.212,0l64.784,55.902l-6.792-161.959l31.347-1.567l7.837,185.992v0.522
	c0,8.359-4.702,15.673-12.016,19.331C334.89,476.473,331.755,477.518,329.143,477.518z"/>
<path style="fill:#1185E0;" d="M238.759,318.694c-87.771,0-159.347-71.576-159.347-159.347S150.988,0,238.759,0
	s159.347,71.576,159.347,159.347S326.531,318.694,238.759,318.694z M238.759,31.347c-70.531,0-128,57.469-128,128
	s57.469,128,128,128s128-57.469,128-128S309.29,31.347,238.759,31.347z"/>
<path style="fill:#4DCFE0;" d="M217.861,217.861L217.861,217.861c-4.18,0-8.359-1.567-10.971-4.702l-42.841-43.363
	c-6.269-6.269-6.269-16.196,0-21.943c6.269-6.269,16.196-6.269,21.943,0l31.869,32.392l68.441-68.441
	c6.269-6.269,16.196-6.269,21.943,0c6.269,6.269,6.269,16.196,0,21.943l-79.412,79.412
	C226.22,216.294,222.041,217.861,217.861,217.861z"/>
<g>
</g>
<g>
</g>
<g>
</g>
<g>
</g>
<g>
</g>
<g>
</g>
<g>
</g>
<g>
</g>
<g>
</g>
<g>
</g>
<g>
</g>
<g>
</g>
<g>
</g>
<g>
</g>
<g>
</g>
</svg>
